<svg width="311" height="440" viewBox="0 0 311 440" fill="none" xmlns="http://www.w3.org/2000/svg">
<path d="M212.97 285.201L212.975 284.902C213.294 265.371 229.226 249.637 248.833 249.637C268.44 249.637 284.373 265.371 284.692 284.902L284.697 285.201L284.697 321.363L212.97 321.363L212.97 285.201Z" fill="#746BEB" stroke="black" stroke-width="2.47333"/>
<path d="M249.43 379.381C250.491 368.698 246.929 357.643 238.746 349.459C230.563 341.276 219.507 337.715 208.824 338.776C207.763 349.459 211.325 360.514 219.508 368.697C227.691 376.881 238.747 380.442 249.43 379.381Z" fill="#3BB3BD"/>
<path d="M247.779 379.381C246.718 368.698 250.28 357.643 258.463 349.459C266.646 341.276 277.702 337.715 288.385 338.776C289.446 349.459 285.884 360.514 277.701 368.697C269.518 376.881 258.462 380.442 247.779 379.381Z" fill="#FFC700"/>
<path d="M249.43 377.273C250.491 387.956 246.929 399.011 238.746 407.195C230.563 415.378 219.507 418.939 208.824 417.878C207.763 407.195 211.325 396.14 219.508 387.957C227.691 379.773 238.747 376.212 249.43 377.273Z" fill="#746BEB"/>
<path d="M247.779 377.273C246.718 387.956 250.28 399.011 258.463 407.195C266.646 415.378 277.702 418.939 288.385 417.878C289.446 407.195 285.884 396.14 277.701 387.957C269.518 379.773 258.462 376.212 247.779 377.273Z" fill="black"/>
<circle cx="61.8334" cy="285.5" r="35.8633" stroke="black" stroke-width="2.47333" stroke-dasharray="4.95 4.95"/>
<circle cx="61.8334" cy="285.5" r="17.3133" fill="#FFC700" stroke="black" stroke-width="2.47333"/>
<circle cx="44.52" cy="360.853" r="17.3133" fill="white" stroke="black" stroke-width="2.47333"/>
<path d="M44.0307 347.749L44.52 346.261L45.0093 347.749C46.9725 353.719 51.6544 358.4 57.6238 360.364L59.1116 360.853L57.6238 361.342C51.6544 363.306 46.9725 367.987 45.0093 373.957L44.52 375.445L44.0307 373.957C42.0674 367.987 37.3855 363.306 31.4162 361.342L29.9283 360.853L31.4162 360.364C37.3855 358.4 42.0674 353.719 44.0307 347.749Z" fill="#A17FBC" stroke="black" stroke-width="2.47333"/>
<circle cx="44.52" cy="395.48" r="17.3133" fill="white" stroke="black" stroke-width="2.47333"/>
<circle cx="79.1464" cy="360.853" r="17.3133" fill="white" stroke="black" stroke-width="2.47333"/>
<circle cx="79.1464" cy="395.48" r="17.3133" fill="white" stroke="black" stroke-width="2.47333"/>
<path d="M78.6571 382.376L79.1464 380.888L79.6358 382.376C81.599 388.345 86.2809 393.027 92.2502 394.99L93.7381 395.48L92.2502 395.969C86.2809 397.932 81.599 402.614 79.6358 408.584L79.1464 410.071L78.6571 408.584C76.6939 402.614 72.012 397.932 66.0426 395.969L64.5548 395.48L66.0426 394.99C72.012 393.027 76.6939 388.345 78.6571 382.376Z" fill="#BCA47F" stroke="black" stroke-width="2.47333"/>
<path d="M212.968 194.089C231.794 194.726 246.941 209.872 247.578 228.698L212.968 228.698L212.968 194.089Z" fill="black" stroke="black" stroke-width="2.47"/>
<path d="M284.698 194.089C265.873 194.726 250.726 209.872 250.089 228.698L284.698 228.698L284.698 194.089Z" fill="#FFC700" stroke="black" stroke-width="2.47"/>
<circle cx="248.833" cy="174.283" r="17.315" fill="#A17FBC" stroke="black" stroke-width="2.47"/>
<rect x="118.97" y="156.97" width="71.7267" height="71.7267" fill="#A17FBC" stroke="black" stroke-width="2.47333"/>
<rect x="131.337" y="169.337" width="59.36" height="59.36" fill="#7FA6BC" stroke="black" stroke-width="2.47333"/>
<rect x="143.703" y="181.703" width="46.9933" height="46.9933" fill="#BC7F7F" stroke="black" stroke-width="2.47333"/>
<path d="M31 193C69.75 162.333 7.75 162.333 46.5 193C85.25 223.667 23.25 223.667 62 193C100.75 162.333 38.75 162.333 77.5 193C116.25 223.667 54.25 223.667 93 193" stroke="black" stroke-width="2.47333" stroke-linecap="round"/>
<path d="M165.177 257.117C139.955 257.117 119.51 264.73 119.51 274.122C119.51 283.513 139.955 291.126 165.177 291.126C179.311 291.126 190.769 287.903 190.769 283.928C190.769 279.952 179.311 276.73 165.177 276.73C139.955 276.73 119.51 284.343 119.51 293.734C119.51 303.125 139.955 310.739 165.177 310.739C179.311 310.739 190.769 307.516 190.769 303.54C190.769 299.565 179.311 296.342 165.177 296.342C139.955 296.342 119.51 304.002 119.51 313.451C119.51 322.899 139.955 330.56 165.177 330.56C179.311 330.56 190.769 327.337 190.769 323.361C190.769 319.386 179.311 316.163 165.177 316.163C139.955 316.163 119.51 323.776 119.51 333.167C119.51 342.559 139.955 350.171 165.177 350.171C179.311 350.171 190.769 346.949 190.769 342.974C190.769 338.998 179.311 335.775 165.177 335.775C139.955 335.775 119.51 343.389 119.51 352.78C119.51 362.171 139.955 369.784 165.177 369.784C179.311 369.784 190.769 366.561 190.769 362.586C190.769 358.611 179.311 355.388 165.177 355.388C139.955 355.388 119.51 363.001 119.51 372.392C119.51 381.783 139.955 389.396 165.177 389.396C179.311 389.396 190.769 386.174 190.769 382.198C190.769 378.223 179.311 375 165.177 375C139.955 375 119.51 382.66 119.51 392.109C119.51 401.557 139.955 409.217 165.177 409.217" stroke="black" stroke-width="3.38" stroke-linecap="round"/>
<path d="M158.5 27.8L158.508 69.459L174.458 30.9742L158.523 69.4654L187.986 40.0137L158.535 69.4768L197.026 53.542L158.541 69.492L200.2 69.5L158.541 69.5081L197.026 85.458L158.535 69.5232L187.986 98.9863L158.523 69.5347L174.458 108.026L158.508 69.5411L158.5 111.2L158.492 69.5411L142.542 108.026L158.477 69.5347L129.014 98.9863L158.465 69.5232L119.974 85.458L158.459 69.5081L116.8 69.5L158.459 69.492L119.974 53.542L158.465 69.4768L129.014 40.0137L158.477 69.4654L142.542 30.9742L158.492 69.459L158.5 27.8Z" stroke="black" stroke-width="2.78"/>
</svg>
