<svg width="55" height="55" viewBox="0 0 55 55" fill="none" xmlns="http://www.w3.org/2000/svg">
<rect width="55" height="55" rx="27.5" fill="black"/>
<path d="M41.9466 20C40.9199 20.4666 39.8132 20.7733 38.6666 20.92C39.8399 20.2133 40.7466 19.0933 41.1732 17.7466C40.0666 18.4133 38.8399 18.88 37.5466 19.1466C36.4932 18 35.0132 17.3333 33.3332 17.3333C30.1999 17.3333 27.6399 19.8933 27.6399 23.0533C27.6399 23.5066 27.6932 23.9466 27.7866 24.36C23.0399 24.12 18.8132 21.84 15.9999 18.3866C15.5066 19.2266 15.2266 20.2133 15.2266 21.2533C15.2266 23.24 16.2266 25 17.7732 26C16.8266 26 15.9466 25.7333 15.1732 25.3333V25.3733C15.1732 28.1466 17.1466 30.4666 19.7599 30.9866C18.9209 31.2163 18.04 31.2482 17.1866 31.08C17.5487 32.2166 18.2579 33.2112 19.2146 33.9239C20.1712 34.6366 21.3272 35.0316 22.5199 35.0533C20.4981 36.6539 17.9919 37.5191 15.4132 37.5066C14.9599 37.5066 14.5066 37.48 14.0532 37.4266C16.5866 39.0533 19.5999 40 22.8266 40C33.3332 40 39.1066 31.28 39.1066 23.72C39.1066 23.4666 39.1066 23.2266 39.0932 22.9733C40.2132 22.1733 41.1732 21.16 41.9466 20Z" fill="white"/>
</svg>
